<svg version="1.1" xmlns="http://www.w3.org/2000/svg" viewBox="0 0 256 256" enable-background="new 0 0 256 256" xml:space="preserve">
<path fill="#000000" d="M170.9,243.1H20.9v-25h150.1c27.6,0,50-22.4,50-50v-12.5c0-27.6-22.4-50-50-50H44.7l45.7,50.8c3.7,4.1,3.4,10.4-0.7,14.1c-4.1,3.7-10.4,3.3-14.1-0.7l-62.9-70c-0.5-0.6-0.8-1.2-1.1-1.8c-0.2-0.4-0.5-0.7-0.7-1.1C10.3,95.5,10,94.3,10,93l0,0l0,0c0-1.3,0.3-2.6,0.8-3.8c0.2-0.4,0.5-0.7,0.7-1.1c0.4-0.6,0.6-1.3,1.1-1.8l63-70c3.7-4.1,10-4.4,14.1-0.7c4.1,3.7,4.5,10,0.7,14.1L44.7,80.5h126.2c41.4,0,75.1,33.6,75.1,75.1V168C246,209.5,212.4,243.1,170.9,243.1z"/>
</svg>
