<svg width="9" height="8" viewBox="0 0 9 8" fill="none" xmlns="http://www.w3.org/2000/svg">
<path d="M8.03065 0.970208C8.16954 1.10896 8.2485 1.29664 8.25056 1.49296C8.25261 1.68928 8.17761 1.87858 8.04165 2.02021L4.04965 7.01021C3.98104 7.08411 3.89823 7.14341 3.80618 7.18457C3.71413 7.22574 3.61472 7.24792 3.5139 7.24978C3.41308 7.25165 3.31292 7.23317 3.2194 7.19544C3.12589 7.15771 3.04094 7.10152 2.96965 7.03021L0.324646 4.38421C0.250959 4.31555 0.191857 4.23275 0.150865 4.14075C0.109873 4.04875 0.087831 3.94943 0.0860542 3.84873C0.0842774 3.74803 0.102802 3.648 0.140523 3.55461C0.178244 3.46122 0.234389 3.37639 0.305608 3.30517C0.376826 3.23395 0.46166 3.17781 0.555048 3.14009C0.648437 3.10236 0.748466 3.08384 0.849169 3.08562C0.949872 3.08739 1.04918 3.10944 1.14118 3.15043C1.23318 3.19142 1.31598 3.25052 1.38465 3.32421L3.47865 5.41721L6.95165 0.992209C7.02012 0.918177 7.10282 0.858715 7.1948 0.817377C7.28678 0.776039 7.38615 0.753674 7.48697 0.75162C7.58779 0.749567 7.68799 0.767866 7.78158 0.805424C7.87516 0.842982 7.96022 0.899027 8.03165 0.970208H8.03065Z" fill="white"/>
</svg>
