<svg width="20" height="18" viewBox="0 0 20 18" fill="none" xmlns="http://www.w3.org/2000/svg">
<path d="M13.2607 8.43868C13.2607 8.7584 13.3877 9.06503 13.6138 9.29111C13.8399 9.51719 14.1465 9.6442 14.4662 9.6442C14.786 9.6442 15.0926 9.51719 15.3187 9.29111C15.5447 9.06503 15.6718 8.7584 15.6718 8.43868C15.6718 8.11895 15.5447 7.81232 15.3187 7.58624C15.0926 7.36016 14.786 7.23315 14.4662 7.23315C14.1465 7.23315 13.8399 7.36016 13.6138 7.58624C13.3877 7.81232 13.2607 8.11895 13.2607 8.43868ZM8.43862 8.43868C8.43862 8.7584 8.56563 9.06503 8.79171 9.29111C9.01779 9.51719 9.32442 9.6442 9.64414 9.6442C9.96386 9.6442 10.2705 9.51719 10.4966 9.29111C10.7227 9.06503 10.8497 8.7584 10.8497 8.43868C10.8497 8.11895 10.7227 7.81232 10.4966 7.58624C10.2705 7.36016 9.96386 7.23315 9.64414 7.23315C9.32442 7.23315 9.01779 7.36016 8.79171 7.58624C8.56563 7.81232 8.43862 8.11895 8.43862 8.43868ZM4.82205 9.6442C4.50232 9.6442 4.19569 9.51719 3.96962 9.29111C3.74354 9.06503 3.61653 8.7584 3.61653 8.43868C3.61653 8.11895 3.74354 7.81232 3.96962 7.58624C4.19569 7.36016 4.50232 7.23315 4.82205 7.23315C5.14177 7.23315 5.4484 7.36016 5.67448 7.58624C5.90056 7.81232 6.02757 8.11895 6.02757 8.43868C6.02757 8.7584 5.90056 9.06503 5.67448 9.29111C5.4484 9.51719 5.14177 9.6442 4.82205 9.6442Z" fill="#C0C0C0"/>
<path d="M16.6784 17.8454L16.6543 17.8405C14.4482 17.4029 13.1004 16.8255 12.4735 16.5084C11.5506 16.7546 10.5993 16.8786 9.64415 16.8773C4.31815 16.8773 -3.24249e-05 13.0992 -3.24249e-05 8.43866C-3.24249e-05 3.77811 4.31815 0 9.64415 0C14.9701 0 19.2883 3.77811 19.2883 8.43866C19.2883 10.5604 18.3926 12.5013 16.9135 13.9841C17.0169 14.9365 17.2289 15.8741 17.5451 16.7785L17.5488 16.7917C17.6386 17.0508 17.7367 17.3069 17.8429 17.5596C17.9381 17.7839 17.7537 18.0346 17.5138 17.996C17.2345 17.9503 16.956 17.9001 16.6784 17.8454ZM15.714 14.0986C15.6971 13.9221 15.7193 13.7441 15.7791 13.5771C15.8389 13.4102 15.9348 13.2586 16.0599 13.133C17.3378 11.8503 18.0828 10.2084 18.0828 8.43866C18.0828 4.59063 14.4614 1.20552 9.64415 1.20552C4.82688 1.20552 1.20549 4.59063 1.20549 8.43866C1.20549 12.2879 4.82688 15.6718 9.64415 15.6718C10.4939 15.673 11.3402 15.5628 12.1613 15.3439C12.4482 15.267 12.7534 15.2988 13.0184 15.4331C13.4849 15.6694 14.5133 16.1202 16.1938 16.5096C15.9593 15.7226 15.7987 14.9154 15.714 14.0986Z" fill="#C0C0C0"/>
</svg>
