<svg width="92" height="64" viewBox="0 0 92 64" fill="none" xmlns="http://www.w3.org/2000/svg">
<path fill-rule="evenodd" clip-rule="evenodd" d="M26.5527 5.11426H83.3443C85.352 5.11426 86.9941 6.75723 86.9941 8.76416V54.7149C86.9941 56.7218 85.3512 58.3648 83.3443 58.3648H26.5527C24.4468 58.3648 8.7156 37.0116 5.24864 32.5249C4.73576 31.8616 4.5804 31.2115 5.13448 30.5116C8.76623 25.9251 24.5575 5.11426 26.5527 5.11426Z" stroke="black" stroke-width="9.33317" stroke-miterlimit="22.9256"/>
<mask id="mask0_903_418" style="mask-type:luminance" maskUnits="userSpaceOnUse" x="35" y="9" width="45" height="45">
<path d="M35.5625 9.875H79.292V53.6045H35.5625V9.875Z" fill="white"/>
</mask>
<path fill-rule="evenodd" clip-rule="evenodd" d="M43.8385 18.1529C44.5498 17.4412 45.7036 17.4412 46.415 18.1529L57.4255 29.1634L68.4364 18.1529C69.1477 17.4412 70.3016 17.4412 71.0129 18.1529C71.7246 18.8642 71.7246 20.0181 71.0129 20.7294L60.0024 31.7399L71.0129 42.7508C71.7246 43.4621 71.7246 44.616 71.0129 45.3273C70.3016 46.039 69.1477 46.039 68.4364 45.3273L57.4255 34.3168L46.415 45.3273C45.7036 46.039 44.5498 46.039 43.8385 45.3273C43.1268 44.616 43.1268 43.4621 43.8385 42.7508L54.849 31.7399L43.8385 20.7294C43.1268 20.0181 43.1268 18.8642 43.8385 18.1529Z" fill="black" stroke="black" stroke-width="3.99987" stroke-miterlimit="22.9256"/>
</svg>
