<svg width="44" height="31" viewBox="0 0 44 31" fill="none" xmlns="http://www.w3.org/2000/svg">
<path d="M41.8444 0.390625H2.15578C1.17948 0.390625 0.390625 1.17948 0.390625 2.15578V5.71733V6.35388V27.9106C0.390625 28.883 1.17948 29.6758 2.15578 29.6758H41.8444C42.8168 29.6758 43.6096 28.8869 43.6096 27.9106V6.35388V5.71733V2.15578C43.6057 1.17948 42.8168 0.390625 41.8444 0.390625Z" fill="white"/>
<path d="M41.8443 30.0623H2.15568C0.964587 30.0623 0 29.0938 0 27.9066V2.15568C0 0.964587 0.964587 0 2.15568 0H41.8443C43.0315 0 44 0.964587 44 2.15568V27.9105C43.9961 29.0938 43.0315 30.0623 41.8443 30.0623ZM2.15568 0.781042C1.39807 0.781042 0.781042 1.39806 0.781042 2.15568V27.9105C0.781042 28.6681 1.39807 29.2852 2.15568 29.2852H41.8443C42.6019 29.2852 43.219 28.6681 43.219 27.9105V2.15568C43.219 1.39806 42.6019 0.781042 41.8443 0.781042H2.15568Z" fill="#2E2E2E"/>
<path d="M23.7988 7.23891V7.20152C23.7988 5.31701 25.0888 3.75781 26.992 3.75781C28.899 3.75781 30.1478 5.31701 30.1478 7.16413V7.20152C30.1478 9.06732 28.8765 10.6452 26.9509 10.6452C25.0664 10.6452 23.7988 9.08602 23.7988 7.23891ZM28.4353 7.23891V7.20152C28.4353 6.12466 27.8184 5.23849 26.9546 5.23849C26.0498 5.23849 25.5113 6.12466 25.5113 7.16413V7.20152C25.5113 8.29707 26.1283 9.16454 26.992 9.16454C27.8969 9.16454 28.4353 8.27838 28.4353 7.23891ZM26.0124 16.2277L34.8441 4.16163C34.9787 3.92981 35.2292 3.8139 35.4984 3.8139C35.921 3.8139 36.2687 4.14294 36.2687 4.56546C36.2687 4.75989 36.1902 4.93189 36.093 5.06649L27.2612 17.1325C27.1079 17.3644 26.8574 17.4803 26.5882 17.4803C26.1657 17.4803 25.8366 17.1512 25.8366 16.7287C25.8366 16.5343 25.9152 16.3623 26.0124 16.2277ZM31.9388 14.1301V14.0927C31.9388 12.2082 33.2288 10.649 35.132 10.649C37.0165 10.649 38.2878 12.2082 38.2878 14.0553V14.0927C38.2878 15.9585 36.9978 17.5364 35.0909 17.5364C33.2101 17.5364 31.9388 15.9772 31.9388 14.1301ZM36.5753 14.1301V14.0927C36.5753 13.0158 35.9584 12.1296 35.0946 12.1296C34.1898 12.1296 33.6513 13.0158 33.6513 14.0553V14.0927C33.6513 15.1882 34.2683 16.0557 35.132 16.0557C36.0369 16.0519 36.5753 15.1695 36.5753 14.1301Z" fill="#2196F3"/>
<path d="M5.0368 21.1973H3.86523V21.9783H5.0368V21.1973Z" fill="#2E2E2E"/>
<path d="M36.6972 21.9783H34.4361V21.1973H36.6972V21.9783ZM32.175 21.9783H29.9139V21.1973H32.175V21.9783ZM27.6528 21.9783H25.3917V21.1973H27.6528V21.9783ZM23.1305 21.9783H20.8694V21.1973H23.1305V21.9783ZM18.6044 21.9783H16.3433V21.1973H18.6044V21.9783ZM14.0822 21.9783H11.8211V21.1973H14.0822V21.9783ZM9.55994 21.9783H7.29883V21.1973H9.55994V21.9783Z" fill="#2E2E2E"/>
<path d="M40.1286 21.1973H38.957V21.9783H40.1286V21.1973Z" fill="#2E2E2E"/>
<path d="M18.666 24.7632H3.86523V25.5442H18.666V24.7632Z" fill="#2E2E2E"/>
<path d="M11.0079 4.51855H4.90402C4.32995 4.51855 3.86133 4.98327 3.86133 5.56125V9.09937C3.86133 9.67343 4.32605 10.1421 4.90402 10.1421H11.0079C11.5819 10.1421 12.0506 9.67734 12.0506 9.09937V5.56125C12.0506 4.98327 11.5858 4.51855 11.0079 4.51855Z" fill="#2E2E2E"/>
</svg>
