<svg width="11" height="6" viewBox="0 0 11 6" fill="none" xmlns="http://www.w3.org/2000/svg">
<path d="M10.1944 0.229439C10.0474 0.0825295 9.84815 -2.51638e-08 9.64036 -3.42467e-08C9.43256 -4.33296e-08 9.23328 0.0825295 9.08632 0.229439L5.2073 4.10846L1.32828 0.229439C1.18049 0.0866926 0.982536 0.00770569 0.777068 0.00949114C0.5716 0.0112766 0.375053 0.0936914 0.22976 0.238985C0.0844669 0.384278 0.00205324 0.580825 0.000266994 0.786293C-0.00151829 0.991761 0.0774688 1.18971 0.220215 1.33751L4.65327 5.77056C4.80022 5.91747 4.99951 6 5.2073 6C5.4151 6 5.61438 5.91747 5.76134 5.77056L10.1944 1.33751C10.3413 1.19055 10.4238 0.991266 10.4238 0.783473C10.4238 0.57568 10.3413 0.376394 10.1944 0.229439Z" fill="white"/>
</svg>
