<svg width="18" height="18" viewBox="0 0 18 18" fill="none" xmlns="http://www.w3.org/2000/svg">
  <path d="M15.945 9.62792H13.0823V8.16278H15.945V9.62792ZM15.945 10.4651H13.0823V11.9302H15.945V10.4651ZM15.945 3.55813H13.0823V5.02324H15.945V3.55817V3.55813ZM15.945 5.86046H13.0823V7.32556H15.945V5.86046ZM15.945 12.7674H13.0823V14.2326H15.945V12.7674V12.7674ZM17.9223 15.6558C17.8405 16.0912 17.3293 16.1016 16.9878 16.1163H10.6286V18H9.35884L0 16.3256V1.67652L9.41407 0H10.6286V1.66814H16.769C17.1146 1.68279 17.4949 1.65767 17.7955 1.86905C18.0061 2.17882 17.9857 2.57233 18 2.92812L17.9918 13.8244C17.9816 14.4335 18.047 15.0551 17.9223 15.6558ZM7.49809 12.3719C6.93376 11.1998 6.3592 10.036 5.79688 8.86394C6.35305 7.72325 6.90106 6.57838 7.44701 5.43348C6.98284 5.45651 6.51867 5.48581 6.05658 5.51931C5.71099 6.37952 5.30817 7.21674 5.03828 8.10628C4.78677 7.26698 4.45349 6.45905 4.14882 5.64069C3.69896 5.66581 3.2491 5.69301 2.79928 5.72022C3.27364 6.79189 3.77873 7.8488 4.23879 8.92673C3.69692 9.97325 3.18983 11.0344 2.66432 12.0872C3.1121 12.106 3.55992 12.1249 4.00771 12.1312C4.32671 11.2982 4.72338 10.4965 5.00147 9.64674C5.25094 10.5593 5.67418 11.4028 6.02181 12.2756C6.51459 12.3112 7.00534 12.3426 7.49812 12.3719H7.49809ZM17.0248 2.66219H10.6286V3.55813H12.2645V5.02324H10.6286V5.86046H12.2645V7.32556H10.6286V8.16278H12.2645V9.62792H10.6286V10.4651H12.2645V11.9302H10.6286V12.7674H12.2645V14.2326H10.6286V15.2005H17.0248V2.66219Z" fill="white"/>
</svg>
