<svg width="14" height="8" viewBox="0 0 14 8" fill="none" xmlns="http://www.w3.org/2000/svg">
<path d="M0.00180431 0.999543C0.00134942 0.766408 0.0825443 0.540473 0.231296 0.360959C0.315059 0.259924 0.417933 0.176408 0.534022 0.115192C0.650112 0.0539753 0.777137 0.0162626 0.907824 0.00421351C1.03851 -0.00783563 1.17029 0.00601568 1.29562 0.0449738C1.42094 0.0839319 1.53735 0.147231 1.63818 0.231246L6.98632 4.70133L12.3444 0.390894C12.4465 0.308011 12.5639 0.246117 12.69 0.208768C12.8161 0.171419 12.9482 0.159352 13.079 0.17326C13.2097 0.187169 13.3364 0.226778 13.4518 0.289812C13.5672 0.352846 13.669 0.438062 13.7513 0.540561C13.8421 0.643798 13.9107 0.764696 13.9526 0.895668C13.9945 1.02664 14.0088 1.16486 13.9948 1.30165C13.9807 1.43844 13.9385 1.57085 13.8709 1.69056C13.8032 1.81028 13.7116 1.91472 13.6016 1.99733L7.61492 6.81664C7.43638 6.9634 7.21244 7.04363 6.98133 7.04363C6.75021 7.04363 6.52627 6.9634 6.34773 6.81664L0.361009 1.82771C0.240259 1.72761 0.144807 1.60046 0.0823964 1.45657C0.0199861 1.31268 -0.00762468 1.1561 0.00180431 0.999543Z" fill="#C0C0C0"/>
</svg>
