<svg width="18" height="16" viewBox="0 0 18 16" fill="none" xmlns="http://www.w3.org/2000/svg">
  <path d="M5.78571 0C5.27423 0 4.78369 0.210714 4.42201 0.585787C4.06033 0.960859 3.85714 1.46957 3.85714 2V2.66667H2.57143C1.88944 2.66667 1.23539 2.94762 0.753154 3.44772C0.270918 3.94781 0 4.62609 0 5.33333V11.3333C0 11.8638 0.203188 12.3725 0.564866 12.7475C0.926543 13.1226 1.41708 13.3333 1.92857 13.3333H3.85714V14C3.85714 14.5304 4.06033 15.0391 4.42201 15.4142C4.78369 15.7893 5.27423 16 5.78571 16H12.3429C12.8543 16 13.3449 15.7893 13.7066 15.4142C14.0682 15.0391 14.2714 14.5304 14.2714 14V13.3333H16.0714C16.5829 13.3333 17.0735 13.1226 17.4351 12.7475C17.7968 12.3725 18 11.8638 18 11.3333V5.33333C18 4.62609 17.7291 3.94781 17.2468 3.44772C16.7646 2.94762 16.1106 2.66667 15.4286 2.66667H14.1429V2C14.1429 1.46957 13.9397 0.960859 13.578 0.585787C13.2163 0.210714 12.7258 0 12.2143 0H5.78571ZM12.8571 2.66667H5.14286V2C5.14286 1.82319 5.21059 1.65362 5.33115 1.5286C5.4517 1.40357 5.61522 1.33333 5.78571 1.33333H12.2143C12.3848 1.33333 12.5483 1.40357 12.6689 1.5286C12.7894 1.65362 12.8571 1.82319 12.8571 2V2.66667ZM5.78571 10.6667H12.3429C12.5134 10.6667 12.6769 10.7369 12.7974 10.8619C12.918 10.987 12.9857 11.1565 12.9857 11.3333V14C12.9857 14.1768 12.918 14.3464 12.7974 14.4714C12.6769 14.5964 12.5134 14.6667 12.3429 14.6667H5.78571C5.61522 14.6667 5.4517 14.5964 5.33115 14.4714C5.21059 14.3464 5.14286 14.1768 5.14286 14V11.3333C5.14286 11.1565 5.21059 10.987 5.33115 10.8619C5.4517 10.7369 5.61522 10.6667 5.78571 10.6667Z" fill="#78CD51"/>
</svg>
