<svg width="20" height="20" viewBox="0 0 20 20" fill="none" xmlns="http://www.w3.org/2000/svg">
  <path d="M1.50023 8.09731C0.531387 8.80046 0 9.75588 0 10.7811C0 11.8063 0.531387 12.7617 1.50023 13.4649C2.41003 14.1277 3.61236 14.4927 4.88178 14.4927C6.15121 14.4927 7.35354 14.1277 8.26602 13.4649C8.83766 13.0489 9.25633 12.547 9.50324 11.9941L18.3999 12.2894C19.2534 12.3189 19.9619 11.6345 19.9619 10.7784C19.9619 9.92496 19.2534 9.2406 18.3999 9.26743L9.50324 9.56265C9.25633 9.00979 8.83498 8.50793 8.26602 8.09194C7.35622 7.42905 6.15389 7.06406 4.88178 7.06406C3.60967 7.06406 2.41003 7.43442 1.50023 8.09731Z" fill="white"/>
  <path d="M19.9995 16.8762C19.9995 16.0227 19.291 15.3437 18.4375 15.3786L10.6224 15.7033H0.587745C0.152973 15.7033 -0.131506 16.1623 0.064409 16.5514C1.12182 18.6662 3.28225 20.0001 5.64397 20.0001H9.25901C10.0132 20.0001 10.6251 19.3882 10.6251 18.634V18.049L18.4375 18.3737C19.291 18.4086 19.9995 17.7296 19.9995 16.8762Z" fill="white"/>
  <path d="M0.000488281 0.585063C0.000488281 0.909799 0.263498 1.17013 0.585551 1.17013H6.13291V2.34293H0.585551C0.263498 2.34293 0.000488281 2.60594 0.000488281 2.93068C0.000488281 3.25542 0.263498 3.51574 0.585551 3.51574H6.13291V4.68855H0.585551C0.263498 4.68855 0.000488281 4.94888 0.000488281 5.27361C0.000488281 5.59835 0.263498 5.85868 0.585551 5.85868H7.75928C8.40338 5.85868 9.00455 5.53662 9.3588 5.00255C9.72917 4.44433 10.3652 4.12228 11.0335 4.14643L18.4353 4.43091C19.2888 4.46311 19.9973 3.78144 19.9973 2.928C19.9973 2.07456 19.2888 1.39288 18.4353 1.42508L11.0362 1.71225C10.3679 1.73908 9.73185 1.41435 9.36149 0.856124C9.00455 0.322053 8.40338 0 7.76196 0H0.585551C0.263498 0 0.000488281 0.26301 0.000488281 0.585063Z" fill="white"/>
</svg>
