<svg width="17" height="17" viewBox="0 0 17 17" fill="none" xmlns="http://www.w3.org/2000/svg">
<path d="M7.44015 0L6.3803 2.52244C6.16833 2.58604 5.97756 2.69202 5.78678 2.79801L3.26434 1.73815L1.73815 3.26434L2.798 5.78678C2.69202 5.99875 2.60723 6.16833 2.52244 6.3803L0 7.44015V9.55985L2.52244 10.6197C2.60723 10.8317 2.69202 11.0012 2.798 11.2132L1.73815 13.7357L3.26434 15.2618L5.78678 14.202C5.97756 14.2868 6.16833 14.3928 6.3803 14.4776L7.44015 17H9.55985L10.6197 14.4776C10.8105 14.3928 11.0224 14.308 11.2132 14.202L13.7357 15.2618L15.2618 13.7357L14.202 11.2132C14.2868 11.0224 14.3928 10.8105 14.4776 10.6197L17 9.55985V7.44015L14.4776 6.3803C14.414 6.18953 14.308 5.97756 14.202 5.78678L15.2618 3.26434L13.7357 1.73815L11.2132 2.79801C11.0224 2.71322 10.8105 2.60723 10.6197 2.52244L9.55985 0L7.44015 0ZM8.5 5.29925C10.2594 5.29925 11.6796 6.71945 11.6796 8.4788C11.6796 10.2382 10.2594 11.6584 8.5 11.6584C6.74065 11.6584 5.32045 10.2382 5.32045 8.4788C5.32045 6.71945 6.74065 5.29925 8.5 5.29925Z" fill="black"/>
</svg>
