<svg width="40" height="24" viewBox="0 0 40 24" fill="none" xmlns="http://www.w3.org/2000/svg">
<path d="M19.68 5C16.4193 5 13.776 8.13375 13.776 12C13.776 15.8656 16.4193 19 19.68 19C22.9395 19 25.584 15.8669 25.584 12C25.584 8.13375 22.9407 5 19.68 5ZM22.14 15.5C22.14 15.7762 21.9198 16 21.648 16H17.712C17.4402 16 17.22 15.7762 17.22 15.5V14.5C17.22 14.2238 17.4402 14 17.712 14H18.696V10.535L18.6671 10.5544C18.6134 10.5908 18.5531 10.6161 18.4897 10.6289C18.4263 10.6416 18.3611 10.6416 18.2978 10.6287C18.2344 10.6158 18.1742 10.5904 18.1205 10.5538C18.0669 10.5172 18.0208 10.4703 17.9851 10.4156L17.4389 9.58375C17.4031 9.52914 17.3782 9.46789 17.3656 9.40348C17.3531 9.33908 17.3531 9.2728 17.3658 9.20842C17.3785 9.14405 17.4035 9.08285 17.4395 9.02832C17.4755 8.97378 17.5217 8.927 17.5755 8.89062L18.5183 8.25187C18.7607 8.08762 19.0455 7.99998 19.3368 8H20.172C20.4438 8 20.664 8.22375 20.664 8.5V14H21.648C21.9198 14 22.14 14.2238 22.14 14.5V15.5ZM37.392 0H1.968C0.881295 0 0 0.895625 0 2V22C0 23.1044 0.881295 24 1.968 24H37.392C38.4787 24 39.36 23.1044 39.36 22V2C39.36 0.895625 38.4787 0 37.392 0ZM36.408 17C34.234 17 32.472 18.7906 32.472 21H6.888C6.888 18.7906 5.12602 17 2.952 17V7C5.12602 7 6.888 5.20937 6.888 3H32.472C32.472 5.20937 34.234 7 36.408 7V17Z" fill="#78CD51"/>
</svg>
