<svg width="23" height="24" viewBox="0 0 23 24" fill="none" xmlns="http://www.w3.org/2000/svg">
<path d="M5.64661 9.88347C6.62381 9.88347 7.57906 9.5937 8.39156 9.0508C9.20407 8.5079 9.83734 7.73626 10.2113 6.83345C10.5853 5.93064 10.6831 4.93721 10.4925 3.97879C10.3018 3.02037 9.83125 2.14001 9.14027 1.44903C8.44929 0.758048 7.56893 0.287484 6.61051 0.0968426C5.65209 -0.0937986 4.65867 0.00404542 3.75585 0.378002C2.85304 0.751958 2.0814 1.38523 1.5385 2.19774C0.995599 3.01025 0.705828 3.9655 0.705828 4.94269C0.705828 6.25307 1.22637 7.50977 2.15295 8.43635C3.07953 9.36293 4.33623 9.88347 5.64661 9.88347ZM5.64661 2.82521C6.06541 2.82521 6.4748 2.9494 6.82302 3.18207C7.17124 3.41474 7.44264 3.74545 7.60291 4.13237C7.76317 4.51928 7.80511 4.94504 7.7234 5.35579C7.6417 5.76654 7.44003 6.14384 7.1439 6.43997C6.84776 6.73611 6.47046 6.93778 6.05971 7.01948C5.64896 7.10119 5.22321 7.05925 4.83629 6.89899C4.44937 6.73872 4.11866 6.46732 3.88599 6.1191C3.65332 5.77088 3.52913 5.36149 3.52913 4.94269C3.52913 4.3811 3.75222 3.84251 4.14933 3.44541C4.54643 3.0483 5.08502 2.82521 5.64661 2.82521ZM16.9398 14.1184C15.9626 14.1184 15.0074 14.4082 14.1949 14.9511C13.3824 15.494 12.7491 16.2656 12.3751 17.1685C12.0012 18.0713 11.9033 19.0647 12.094 20.0231C12.2846 20.9815 12.7552 21.8619 13.4462 22.5529C14.1372 23.2439 15.0175 23.7144 15.9759 23.9051C16.9343 24.0957 17.9278 23.9979 18.8306 23.6239C19.7334 23.2499 20.505 22.6167 21.0479 21.8042C21.5908 20.9917 21.8806 20.0364 21.8806 19.0592C21.8806 17.7488 21.3601 16.4921 20.4335 15.5656C19.5069 14.639 18.2502 14.1184 16.9398 14.1184ZM16.9398 21.1767C16.521 21.1767 16.1116 21.0525 15.7634 20.8198C15.4152 20.5872 15.1438 20.2565 14.9835 19.8695C14.8233 19.4826 14.7813 19.0569 14.863 18.6461C14.9447 18.2354 15.1464 17.8581 15.4425 17.5619C15.7387 17.2658 16.116 17.0641 16.5267 16.9824C16.9375 16.9007 17.3632 16.9427 17.7502 17.1029C18.1371 17.2632 18.4678 17.5346 18.7004 17.8828C18.9331 18.231 19.0573 18.6404 19.0573 19.0592C19.0573 19.6208 18.8342 20.1594 18.4371 20.5565C18.04 20.9536 17.5014 21.1767 16.9398 21.1767ZM22.2194 0.368937C22.1027 0.251986 21.9641 0.159201 21.8115 0.0958935C21.6589 0.0325863 21.4953 0 21.3301 0C21.1649 0 21.0013 0.0325863 20.8487 0.0958935C20.696 0.159201 20.5574 0.251986 20.4407 0.368937L0.367031 20.4426C0.134104 20.6803 0.00252274 20.9992 1.44963e-06 21.332C-0.00037636 21.5807 0.0731036 21.824 0.21113 22.031C0.349155 22.2379 0.545514 22.3993 0.775321 22.4945C1.00513 22.5898 1.25804 22.6146 1.502 22.566C1.74597 22.5174 1.97 22.3974 2.14571 22.2213L22.2194 2.14762C22.3364 2.03092 22.4291 1.8923 22.4925 1.73969C22.5558 1.58709 22.5883 1.42349 22.5883 1.25828C22.5883 1.09306 22.5558 0.929468 22.4925 0.776862C22.4291 0.624257 22.3364 0.485636 22.2194 0.368937Z" fill="#F05139"/>
</svg>
