<svg width="44" height="31" viewBox="0 0 44 31" fill="none" xmlns="http://www.w3.org/2000/svg">
<path d="M41.8444 0.390625H2.15578C1.17948 0.390625 0.390625 1.17948 0.390625 2.15578V5.71733V6.35388V27.9106C0.390625 28.883 1.17948 29.6758 2.15578 29.6758H41.8444C42.8168 29.6758 43.6096 28.8869 43.6096 27.9106V6.35388V5.71733V2.15578C43.6057 1.17948 42.8168 0.390625 41.8444 0.390625Z" fill="white"/>
<path d="M41.8443 30.0623H2.15568C0.964587 30.0623 0 29.0938 0 27.9066V2.15568C0 0.964587 0.964587 0 2.15568 0H41.8443C43.0315 0 44 0.964587 44 2.15568V27.9105C43.9961 29.0938 43.0315 30.0623 41.8443 30.0623ZM2.15568 0.781042C1.39807 0.781042 0.781042 1.39806 0.781042 2.15568V27.9105C0.781042 28.6681 1.39807 29.2852 2.15568 29.2852H41.8443C42.6019 29.2852 43.219 28.6681 43.219 27.9105V2.15568C43.219 1.39806 42.6019 0.781042 41.8443 0.781042H2.15568Z" fill="#2E2E2E"/>
<path d="M5.03668 21.1958H3.86523V21.9768H5.03668V21.1958Z" fill="#2E2E2E"/>
<path d="M36.6964 21.9768H34.4355V21.1958H36.6964V21.9768ZM32.1746 21.9768H29.9137V21.1958H32.1746V21.9768ZM27.6489 21.9768H25.388V21.1958H27.6489V21.9768ZM23.1271 21.9768H20.8662V21.1958H23.1271V21.9768ZM18.6053 21.9768H16.3444V21.1958H18.6053V21.9768ZM14.0835 21.9768H11.8226V21.1958H14.0835V21.9768ZM9.55777 21.9768H7.29688V21.1958H9.55777V21.9768Z" fill="#2E2E2E"/>
<path d="M40.1285 21.1958H38.957V21.9768H40.1285V21.1958Z" fill="#2E2E2E"/>
<path d="M18.6646 24.7607H3.86523V25.5417H18.6646V24.7607Z" fill="#2E2E2E"/>
<path d="M11.0111 4.51807H4.90782C4.33381 4.51807 3.86523 4.98274 3.86523 5.56066V9.09844C3.86523 9.67245 4.32991 10.141 4.90782 10.141H11.0111C11.5851 10.141 12.0537 9.67635 12.0537 9.09844V5.56066C12.0498 4.98274 11.5851 4.51807 11.0111 4.51807Z" fill="#2E2E2E"/>
<path d="M35.1 18C35.2857 18 35.4637 17.9263 35.595 17.795C35.7262 17.6637 35.8 17.4857 35.8 17.3C35.8 17.1143 35.7262 16.9363 35.595 16.805C35.4637 16.6737 35.2857 16.6 35.1 16.6H29.2667C28.7716 16.6 28.2968 16.4033 27.9467 16.0533C27.5967 15.7032 27.4 15.2284 27.4 14.7333V7.26667C27.4 6.7716 27.5967 6.2968 27.9467 5.94673C28.2968 5.59667 28.7716 5.4 29.2667 5.4H35.1C35.2857 5.4 35.4637 5.32625 35.595 5.19497C35.7262 5.0637 35.8 4.88565 35.8 4.7C35.8 4.51435 35.7262 4.3363 35.595 4.20503C35.4637 4.07375 35.2857 4 35.1 4H29.2667C28.4003 4 27.5694 4.34417 26.9568 4.95678C26.3442 5.5694 26 6.40029 26 7.26667V14.7333C26 15.5997 26.3442 16.4306 26.9568 17.0432C27.5694 17.6558 28.4003 18 29.2667 18H35.1ZM36.0249 7.4524C36.0925 7.39 36.1716 7.34151 36.2579 7.30971C36.3442 7.27791 36.4358 7.26342 36.5277 7.26706C36.6196 7.2707 36.7098 7.2924 36.7933 7.33093C36.8768 7.36946 36.9519 7.42405 37.0143 7.4916L39.8143 10.5249C39.9338 10.6543 40.0002 10.8239 40.0002 11C40.0002 11.1761 39.9338 11.3457 39.8143 11.4751L37.0143 14.5084C36.8881 14.6447 36.7131 14.7253 36.5275 14.7324C36.342 14.7396 36.1612 14.6728 36.0249 14.5467C35.8887 14.4205 35.8081 14.2455 35.8009 14.0599C35.7937 13.8744 35.8605 13.6936 35.9867 13.5573L37.7021 11.6991H30.4333C30.2477 11.6991 30.0696 11.6253 29.9384 11.494C29.8071 11.3628 29.7333 11.1847 29.7333 10.9991C29.7333 10.8134 29.8071 10.6354 29.9384 10.5041C30.0696 10.3728 30.2477 10.2991 30.4333 10.2991H37.7012L35.9857 8.4408C35.9233 8.37327 35.8748 8.29411 35.843 8.20784C35.8112 8.12157 35.7967 8.02988 35.8004 7.93801C35.804 7.84614 35.8257 7.75589 35.8643 7.6724C35.9028 7.58892 35.9574 7.51478 36.0249 7.4524Z" fill="#FFB800"/>
</svg>
