<svg width="32" height="32" viewBox="0 0 32 32" fill="none" xmlns="http://www.w3.org/2000/svg">
<path d="M29.7162 17.1525V27.7596C29.7162 29.0855 28.6267 30.17 27.2947 30.17H3.70863C2.37662 30.17 1.28711 29.0855 1.28711 27.7596V4.28158C1.28711 2.95568 2.37662 1.87115 3.70863 1.87115H14.3794" stroke="#94D343" stroke-width="2" stroke-miterlimit="22.9256" stroke-linecap="round" stroke-linejoin="round"/>
<path fill-rule="evenodd" clip-rule="evenodd" d="M16.8179 1.89625C16.8179 3.49666 18.2443 2.34613 21.6233 3.59287C23.0497 4.11926 24.4707 5.08462 25.4682 6.076C27.5451 8.14108 28.6439 10.8508 28.7087 13.8324C28.7348 15.0407 30.4089 14.8419 30.4089 13.9438C30.4089 12.6861 30.3426 11.9292 30.0474 10.7565C29.8072 9.80159 29.6111 9.33934 29.2363 8.46672C28.7067 7.23387 27.6242 5.79883 26.6856 4.8657C26.4057 4.5874 26.1857 4.39562 25.8921 4.13477C25.5208 3.80525 24.4945 3.07626 24.1045 2.87171C21.8588 1.69283 20.2436 1.16418 17.5541 1.16418C17.2071 1.16418 16.8179 1.55074 16.8179 1.89625Z" fill="#94D343"/>
<path fill-rule="evenodd" clip-rule="evenodd" d="M16.8179 5.27405C16.8179 6.24758 17.429 6.23861 18.2919 6.28563C19.6287 6.35858 21.4517 7.0429 22.4375 7.90696C22.6758 8.11579 22.8337 8.24237 23.0614 8.46865C23.8 9.20305 24.4633 10.1638 24.8388 11.2619C25.3547 12.7707 25.2627 13.9259 25.3648 14.1731C25.7115 15.0143 27.0112 14.7165 27.0112 13.9438C27.0112 12.1395 26.7589 11.3434 26.1385 9.85716C26.0695 9.69139 26.043 9.66651 25.9591 9.52877C25.3523 8.52568 25.2861 8.25982 24.2788 7.25835C22.6847 5.67385 20.3696 4.54199 18.0638 4.54199H17.5541C17.2071 4.54199 16.8179 4.92854 16.8179 5.27405Z" fill="#94D343"/>
<path fill-rule="evenodd" clip-rule="evenodd" d="M16.8179 8.65186C16.8179 9.87848 17.7846 9.51867 18.8016 9.77597C20.1563 10.1187 21.3713 11.329 21.7348 12.6585C21.8507 13.0836 21.874 13.4524 21.9161 13.9418C22.0078 15.005 23.6136 14.8365 23.6136 13.9438C23.6136 11.4976 22.3813 9.56601 20.2538 8.50168C19.328 8.03815 18.6503 7.9198 17.5541 7.9198C17.2071 7.9198 16.8179 8.30643 16.8179 8.65186Z" fill="#94D343"/>
</svg>
