<svg width="28" height="28" viewBox="0 0 28 28" fill="none" xmlns="http://www.w3.org/2000/svg">
<g clip-path="url(#clip0_213_1638)">
<path fill-rule="evenodd" clip-rule="evenodd" d="M14.8267 0.712584C14.8267 2.27118 16.2094 1.15086 19.4843 2.36484C20.8667 2.8773 22.244 3.81717 23.2107 4.78262C25.2239 6.79323 26.289 9.43178 26.3516 12.3348C26.3769 13.5114 27.9995 13.3178 27.9995 12.4431C27.9995 11.2188 27.935 10.4818 27.649 9.33983C27.4161 8.41014 27.2261 7.96007 26.8628 7.11013C26.3497 5.90995 25.3005 4.51266 24.3907 3.60407C24.1194 3.33315 23.9061 3.14645 23.6214 2.89234C23.2617 2.57129 22.2669 1.86163 21.8891 1.6624C19.7124 0.514635 18.147 -6.10352e-05 15.5402 -6.10352e-05C15.2036 -6.10352e-05 14.8267 0.376406 14.8267 0.712541L14.8267 0.712584Z" fill="#CECDCD"/>
<path fill-rule="evenodd" clip-rule="evenodd" d="M14.8267 4.00148C14.8267 4.94953 15.4187 4.94071 16.2553 4.98652C17.5507 5.05748 19.3179 5.72405 20.2732 6.56512C20.5042 6.76848 20.6574 6.89197 20.8779 7.11224C21.5937 7.82706 22.2366 8.76279 22.6006 9.8319C23.1008 11.3009 23.0117 12.426 23.1104 12.6665C23.4466 13.4854 24.7063 13.1959 24.7063 12.4431C24.7063 10.6862 24.4617 9.91116 23.8605 8.46396C23.7935 8.30253 23.7677 8.27859 23.6867 8.14419C23.0985 7.16768 23.0343 6.90873 22.058 5.93371C20.513 4.39073 18.2688 3.28888 16.0342 3.28888H15.5402C15.2036 3.28888 14.8267 3.66535 14.8267 4.00148Z" fill="#CECDCD"/>
<path fill-rule="evenodd" clip-rule="evenodd" d="M14.8267 7.29042C14.8267 8.48497 15.7635 8.1345 16.7494 8.38507C18.0623 8.71876 19.24 9.89727 19.5921 11.192C19.7046 11.6054 19.7273 11.9647 19.7682 12.4414C19.8569 13.4764 21.4131 13.3126 21.4131 12.4431C21.4131 10.0613 20.219 8.18071 18.1566 7.14414C17.2593 6.69317 16.6024 6.57782 15.5402 6.57782C15.2036 6.57782 14.8267 6.95429 14.8267 7.29042Z" fill="#CECDCD"/>
<path d="M26.4314 15.2824C26.4314 14.8819 26.7566 14.5572 27.1576 14.5572C27.5586 14.5572 27.8838 14.8819 27.8838 15.2824V25.1589C27.8838 25.9409 27.564 26.6514 27.0487 27.166C26.5335 27.6805 25.8221 28 25.039 28H2.84472C2.06168 28 1.35031 27.6805 0.835067 27.166C0.319806 26.6514 0 25.941 0 25.1589V2.98799C0 2.20597 0.319806 1.49554 0.835067 0.980952C1.35033 0.466362 2.06166 0.146973 2.84472 0.146973H12.5339C12.9349 0.146973 13.26 0.471688 13.26 0.872188C13.26 1.27269 12.9349 1.5974 12.5339 1.5974H2.84472C2.46258 1.5974 2.11461 1.75406 1.8619 2.00645C1.60921 2.25881 1.45232 2.60634 1.45232 2.98799V25.1589C1.45232 25.5406 1.60918 25.8881 1.8619 26.1405C2.11459 26.3929 2.46258 26.5495 2.84472 26.5495H25.039C25.4212 26.5495 25.7692 26.3929 26.0219 26.1405C26.2746 25.8881 26.4314 25.5406 26.4314 25.1589V15.2824Z" fill="#CECDCD"/>
</g>
<defs>
<clipPath id="clip0_213_1638">
<rect width="28" height="28" fill="white"/>
</clipPath>
</defs>
</svg>
