<svg width="28" height="28" viewBox="0 0 28 28" fill="none" xmlns="http://www.w3.org/2000/svg">
<path fill-rule="evenodd" clip-rule="evenodd" d="M14.8267 0.712614C14.8267 2.27121 16.2094 1.15089 19.4843 2.36487C20.8667 2.87733 22.244 3.8172 23.2107 4.78265C25.2239 6.79326 26.289 9.43181 26.3516 12.3349C26.3769 13.5114 27.9995 13.3178 27.9995 12.4431C27.9995 11.2188 27.935 10.4818 27.649 9.33986C27.4161 8.41017 27.2261 7.9601 26.8628 7.11016C26.3497 5.90998 25.3005 4.51269 24.3907 3.6041C24.1194 3.33318 23.9061 3.14648 23.6214 2.89237C23.2617 2.57132 22.2669 1.86166 21.8891 1.66243C19.7124 0.514666 18.147 -3.05176e-05 15.5402 -3.05176e-05C15.2036 -3.05176e-05 14.8267 0.376436 14.8267 0.712572L14.8267 0.712614Z" fill="#FF6556"/>
<path fill-rule="evenodd" clip-rule="evenodd" d="M14.8267 4.00154C14.8267 4.94959 15.4187 4.94077 16.2553 4.98658C17.5507 5.05755 19.3179 5.72411 20.2732 6.56518C20.5042 6.76854 20.6574 6.89203 20.8779 7.1123C21.5937 7.82712 22.2366 8.76286 22.6006 9.83196C23.1008 11.3009 23.0117 12.426 23.1104 12.6666C23.4466 13.4855 24.7063 13.196 24.7063 12.4431C24.7063 10.6863 24.4617 9.91122 23.8605 8.46403C23.7935 8.30259 23.7677 8.27865 23.6867 8.14425C23.0985 7.16774 23.0343 6.90879 22.058 5.93377C20.513 4.39079 18.2688 3.28894 16.0342 3.28894H15.5402C15.2036 3.28894 14.8267 3.66541 14.8267 4.00154Z" fill="#FF6556"/>
<path fill-rule="evenodd" clip-rule="evenodd" d="M14.8267 7.29048C14.8267 8.48503 15.7635 8.13456 16.7494 8.38513C18.0623 8.71882 19.24 9.89733 19.5921 11.192C19.7046 11.6055 19.7273 11.9648 19.7682 12.4415C19.8569 13.4765 21.4131 13.3127 21.4131 12.4431C21.4131 10.0614 20.219 8.18077 18.1566 7.1442C17.2593 6.69323 16.6024 6.57788 15.5402 6.57788C15.2036 6.57788 14.8267 6.95435 14.8267 7.29048Z" fill="#FF6556"/>
<path d="M26.4314 15.2825C26.4314 14.882 26.7566 14.5573 27.1576 14.5573C27.5586 14.5573 27.8838 14.882 27.8838 15.2825V25.159C27.8838 25.941 27.564 26.6515 27.0487 27.166C26.5335 27.6806 25.8221 28 25.039 28H2.84472C2.06168 28 1.35031 27.6806 0.835067 27.166C0.319806 26.6515 0 25.941 0 25.159V2.98805C0 2.20603 0.319806 1.4956 0.835067 0.981013C1.35033 0.466423 2.06166 0.147034 2.84472 0.147034H12.5339C12.9349 0.147034 13.26 0.471749 13.26 0.872249C13.26 1.27275 12.9349 1.59746 12.5339 1.59746H2.84472C2.46258 1.59746 2.11461 1.75412 1.8619 2.00651C1.60921 2.25887 1.45232 2.6064 1.45232 2.98805V25.159C1.45232 25.5407 1.60918 25.8882 1.8619 26.1406C2.11459 26.3929 2.46258 26.5496 2.84472 26.5496H25.039C25.4212 26.5496 25.7692 26.3929 26.0219 26.1406C26.2746 25.8882 26.4314 25.5407 26.4314 25.159V15.2825Z" fill="#FF6556"/>
<path d="M15.9619 13.3061C16.7259 13.3061 17.3453 12.6876 17.3453 11.9246C17.3453 11.1616 16.7259 10.543 15.9619 10.543C15.198 10.543 14.5786 11.1616 14.5786 11.9246C14.5786 12.6876 15.198 13.3061 15.9619 13.3061Z" fill="#FF6556"/>
</svg>
