<svg width="58" height="11" viewBox="0 0 58 11" fill="none" xmlns="http://www.w3.org/2000/svg">
  <path d="M6.32887 0.901528V10.6428H3.76934V3.38698H0.753906V0.901528H6.32887ZM7.12832 3.38912H9.68785V0.90366H7.12832V3.38912ZM17.4321 10.6428V8.1595H13.0702V7.01597H16.4079V4.53051H13.0702V3.38698H17.4321V0.901528H10.5106V10.6428H17.4321ZM25.2506 10.6428V8.1595H21.2046V0.901528H18.6451V10.6428H25.2506ZM30.2658 3.37844C31.256 3.37844 31.9389 3.97367 32.1934 4.66706L34.9162 4.66918C34.6278 2.49308 32.6833 0.743652 30.2277 0.743652C27.3245 0.743652 25.3036 2.84723 25.3036 5.77004C25.3036 8.69285 27.3924 10.7964 30.2277 10.7964C32.624 10.7964 34.545 9.26248 34.9481 6.87944L32.1828 6.8773C31.9368 7.64108 31.1777 8.16164 30.2636 8.16164C28.9087 8.16164 27.9883 7.17598 27.9883 5.77004C27.9904 4.36411 28.8767 3.37844 30.2658 3.37844ZM35.6838 0.901528V10.6428H42.6053V8.1595H38.2433V7.01597H41.5811V4.53051H38.2433V3.38698H42.6053V0.901528H35.6838ZM50.4196 10.6428V8.1595H46.3757V0.901528H43.8162V10.6428H50.4196ZM53.9568 0.901528H51.3973V10.6428H58.0007V8.1595H53.9568V0.901528Z" fill="#3b3735"/>
</svg>
