  <svg width="18" height="20" viewBox="0 0 18 20" fill="none" xmlns="http://www.w3.org/2000/svg">
<path d="M7.76763 0C6.41357 0 5.3057 1.09286 5.3057 2.42857H2.84377C1.4897 2.42857 0.381836 3.52143 0.381836 4.85714H17.6154C17.6154 3.52143 16.5075 2.42857 15.1534 2.42857H12.6915C12.6915 1.09286 11.5836 0 10.2296 0H7.76763ZM2.84377 7.28571V18.9671C2.84377 19.2343 3.04072 19.4286 3.31153 19.4286H14.7103C14.9811 19.4286 15.178 19.2343 15.178 18.9671V7.28571H12.7161V15.7857C12.7161 16.4657 12.1745 17 11.4851 17C10.7958 17 10.2542 16.4657 10.2542 15.7857V7.28571H7.79225V15.7857C7.79225 16.4657 7.25062 17 6.56128 17C5.87194 17 5.33032 16.4657 5.33032 15.7857V7.28571H2.86839H2.84377Z" fill="#FF6556"/>
</svg>
