<svg width="14" height="16" viewBox="0 0 14 16" fill="none" xmlns="http://www.w3.org/2000/svg">
  <path d="M6.69504 1.9813e-09C7.42937 -2.74248e-05 8.1351 0.284693 8.66382 0.794289C9.19255 1.30389 9.50308 1.99865 9.5301 2.73248L9.53191 2.83733L12.5957 2.83688C12.8007 2.83697 12.9977 2.91627 13.1455 3.05821C13.2933 3.20014 13.3806 3.39373 13.389 3.5985C13.3975 3.80327 13.3264 4.00337 13.1908 4.15699C13.0551 4.31061 12.8653 4.40585 12.6611 4.42281L12.5957 4.42553H12.066L11.3275 14.2162C11.2909 14.7013 11.0724 15.1546 10.7156 15.4854C10.3589 15.8162 9.8904 16 9.40391 16H3.98616C3.49967 16 3.03115 15.8162 2.67443 15.4854C2.31772 15.1546 2.09915 14.7013 2.06252 14.2162L1.32357 4.42553H0.794326C0.594905 4.42552 0.402787 4.35049 0.256133 4.21535C0.109478 4.08022 0.0190187 3.89487 0.00272321 3.69611L0 3.63121C1.68247e-05 3.43178 0.0750439 3.23967 0.210178 3.09301C0.345312 2.94636 0.530665 2.8559 0.729419 2.8396L0.794326 2.83688H3.85816C3.85816 1.33991 5.01787 0.113475 6.48806 0.00726232L6.59109 0.00181569L6.69504 1.9813e-09ZM8.39716 5.90071C8.2567 5.90064 8.12121 5.95269 8.0169 6.04676C7.9126 6.14084 7.84689 6.27026 7.83251 6.40999L7.82979 6.46808V11.9149L7.83251 11.973C7.8463 12.1132 7.91174 12.2432 8.0161 12.3378C8.12047 12.4324 8.2563 12.4848 8.39716 12.4848C8.53803 12.4848 8.67386 12.4324 8.77822 12.3378C8.88259 12.2432 8.94803 12.1132 8.96181 11.973L8.96454 11.9149V6.46808L8.96181 6.40999C8.94743 6.27026 8.88173 6.14084 8.77742 6.04676C8.67312 5.95269 8.53763 5.90064 8.39716 5.90071ZM4.99291 5.90071C4.85244 5.90064 4.71695 5.95269 4.61265 6.04676C4.50834 6.14084 4.44264 6.27026 4.42826 6.40999L4.42553 6.46808V11.9149L4.42826 11.973C4.44204 12.1132 4.50748 12.2432 4.61185 12.3378C4.71621 12.4324 4.85204 12.4848 4.99291 12.4848C5.13377 12.4848 5.2696 12.4324 5.37397 12.3378C5.47833 12.2432 5.54377 12.1132 5.55756 11.973L5.56028 11.9149V6.46808L5.55756 6.40999C5.54318 6.27026 5.47748 6.14084 5.37317 6.04676C5.26886 5.95269 5.13337 5.90064 4.99291 5.90071ZM6.77129 1.59092L6.69504 1.58865C6.37717 1.58864 6.07128 1.70989 5.83975 1.92767C5.60822 2.14545 5.4685 2.44336 5.44908 2.76062L5.44681 2.83733L7.94326 2.83688C7.94328 2.51902 7.82203 2.21313 7.60425 1.9816C7.38647 1.75007 7.08856 1.61034 6.77129 1.59092Z" fill="white"/>
</svg>
