<svg width="14" height="14" viewBox="0 0 14 14" fill="none" xmlns="http://www.w3.org/2000/svg">
<path d="M12.25 0C12.7141 0 13.1592 0.184375 13.4874 0.512563C13.8156 0.840752 14 1.28587 14 1.75V12.25C14 12.7141 13.8156 13.1592 13.4874 13.4874C13.1592 13.8156 12.7141 14 12.25 14H1.75C1.28587 14 0.840752 13.8156 0.512563 13.4874C0.184375 13.1592 0 12.7141 0 12.25V1.75C0 1.28587 0.184375 0.840752 0.512563 0.512563C0.840752 0.184375 1.28587 0 1.75 0L12.25 0ZM5.166 9.45263L8.75 5.86862V8.29063C8.75 8.40666 8.79609 8.51794 8.87814 8.59998C8.96019 8.68203 9.07147 8.72813 9.1875 8.72813C9.30353 8.72813 9.41481 8.68203 9.49686 8.59998C9.57891 8.51794 9.625 8.40666 9.625 8.29063V4.8125C9.625 4.69647 9.57891 4.58519 9.49686 4.50314C9.41481 4.42109 9.30353 4.375 9.1875 4.375H5.70938C5.59334 4.375 5.48206 4.42109 5.40002 4.50314C5.31797 4.58519 5.27188 4.69647 5.27188 4.8125C5.27188 4.92853 5.31797 5.03981 5.40002 5.12186C5.48206 5.20391 5.59334 5.25 5.70938 5.25H8.13138L4.54738 8.834C4.46768 8.91651 4.42358 9.02703 4.42458 9.14174C4.42558 9.25645 4.47159 9.36618 4.5527 9.4473C4.63382 9.52841 4.74355 9.57442 4.85826 9.57542C4.97297 9.57642 5.08349 9.53232 5.166 9.45263Z" fill="#2E2E2E"/>
</svg>
