<svg width="10" height="22" viewBox="0 0 10 22" fill="none" xmlns="http://www.w3.org/2000/svg">
<path d="M8.25736 21.9999C8.04604 22.0007 7.83724 21.9489 7.6463 21.8483C7.45537 21.7477 7.28715 21.6008 7.15402 21.4185L0.321791 11.9908C0.113738 11.7097 0 11.357 0 10.9931C0 10.6291 0.113738 10.2765 0.321791 9.99531L7.39449 0.567629C7.63459 0.246747 7.97962 0.0449563 8.35366 0.00664887C8.7277 -0.0316585 9.10012 0.0966553 9.38899 0.363362C9.67787 0.630069 9.85953 1.01332 9.89401 1.42881C9.9285 1.8443 9.81299 2.25799 9.57288 2.57887L3.24989 11.0009L9.3607 19.423C9.53368 19.6536 9.64355 19.9345 9.67733 20.2323C9.71111 20.5302 9.66738 20.8325 9.55131 21.1036C9.43524 21.3747 9.25169 21.6032 9.02237 21.762C8.79306 21.9208 8.52759 22.0034 8.25736 21.9999Z" fill="#FFFFFF"/>
</svg>
