<svg width="23" height="20" viewBox="0 0 23 20" fill="none" xmlns="http://www.w3.org/2000/svg">
  <path d="M8.41277 1.08155C8.46066 1.00107 8.49233 0.91188 8.50598 0.819074C8.51964 0.726269 8.515 0.631665 8.49234 0.540665C8.46968 0.449664 8.42943 0.364048 8.3739 0.288706C8.31838 0.213363 8.24865 0.14977 8.16872 0.101556C8.08878 0.0533429 8.00019 0.0214533 7.90801 0.00770856C7.81583 -0.00603622 7.72187 -0.00136698 7.63148 0.0214496C7.5411 0.0442661 7.45606 0.0847831 7.38122 0.140687C7.30639 0.196592 7.24323 0.266788 7.19534 0.347269L3.14574 7.14294H0.709459C0.521299 7.14294 0.340845 7.21819 0.207796 7.35215C0.0747464 7.4861 0 7.66778 0 7.85722L0 9.28578C0 9.47522 0.0747464 9.6569 0.207796 9.79085C0.340845 9.92481 0.521299 10.0001 0.709459 10.0001H1.59345L4.20993 19.2229C4.27358 19.4472 4.4082 19.6445 4.59336 19.7847C4.77852 19.925 5.00409 20.0006 5.23581 20H17.4697C17.7012 20.0003 17.9265 19.9245 18.1113 19.7843C18.2962 19.644 18.4306 19.4469 18.4942 19.2229L21.1093 10.0001H21.9932C22.1814 10.0001 22.3619 9.92481 22.4949 9.79085C22.628 9.6569 22.7027 9.47522 22.7027 9.28578V7.85722C22.7027 7.66778 22.628 7.4861 22.4949 7.35215C22.3619 7.21819 22.1814 7.14294 21.9932 7.14294H19.557L15.5088 0.347269C15.4609 0.266788 15.3977 0.196592 15.3229 0.140687C15.2481 0.0847831 15.163 0.0442661 15.0726 0.0214496C14.9823 -0.00136698 14.8883 -0.00603622 14.7961 0.00770856C14.7039 0.0214533 14.6153 0.0533429 14.5354 0.101556C14.4555 0.14977 14.3857 0.213363 14.3302 0.288706C14.2747 0.364048 14.2344 0.449664 14.2118 0.540665C14.1891 0.631665 14.1845 0.726269 14.1981 0.819074C14.2118 0.91188 14.2435 1.00107 14.2914 1.08155L17.9025 7.14294H4.8002L8.41419 1.08155H8.41277ZM5.67568 12.8572C5.67568 12.4783 5.82517 12.1149 6.09127 11.847C6.35737 11.5791 6.71827 11.4286 7.09459 11.4286C7.47092 11.4286 7.83182 11.5791 8.09792 11.847C8.36402 12.1149 8.51351 12.4783 8.51351 12.8572V15.7143C8.51351 16.0932 8.36402 16.4565 8.09792 16.7245C7.83182 16.9924 7.47092 17.1429 7.09459 17.1429C6.71827 17.1429 6.35737 16.9924 6.09127 16.7245C5.82517 16.4565 5.67568 16.0932 5.67568 15.7143V12.8572ZM9.93243 12.8572C9.93243 12.4783 10.0819 12.1149 10.348 11.847C10.6141 11.5791 10.975 11.4286 11.3514 11.4286C11.7277 11.4286 12.0886 11.5791 12.3547 11.847C12.6208 12.1149 12.7703 12.4783 12.7703 12.8572V15.7143C12.7703 16.0932 12.6208 16.4565 12.3547 16.7245C12.0886 16.9924 11.7277 17.1429 11.3514 17.1429C10.975 17.1429 10.6141 16.9924 10.348 16.7245C10.0819 16.4565 9.93243 16.0932 9.93243 15.7143V12.8572ZM15.6081 11.4286C15.9844 11.4286 16.3453 11.5791 16.6114 11.847C16.8775 12.1149 17.027 12.4783 17.027 12.8572V15.7143C17.027 16.0932 16.8775 16.4565 16.6114 16.7245C16.3453 16.9924 15.9844 17.1429 15.6081 17.1429C15.2318 17.1429 14.8709 16.9924 14.6048 16.7245C14.3387 16.4565 14.1892 16.0932 14.1892 15.7143V12.8572C14.1892 12.4783 14.3387 12.1149 14.6048 11.847C14.8709 11.5791 15.2318 11.4286 15.6081 11.4286Z" fill="white"/>
</svg>
