<svg width="44" height="31" viewBox="0 0 44 31" fill="none" xmlns="http://www.w3.org/2000/svg">
<path d="M41.8444 0.390625H2.15578C1.17948 0.390625 0.390625 1.17948 0.390625 2.15578V5.71733V6.35388V27.9106C0.390625 28.883 1.17948 29.6758 2.15578 29.6758H41.8444C42.8168 29.6758 43.6096 28.8869 43.6096 27.9106V6.35388V5.71733V2.15578C43.6057 1.17948 42.8168 0.390625 41.8444 0.390625Z" fill="white"/>
<path d="M41.8443 30.0623H2.15568C0.964587 30.0623 0 29.0938 0 27.9066V2.15568C0 0.964587 0.964587 0 2.15568 0H41.8443C43.0315 0 44 0.964587 44 2.15568V27.9105C43.9961 29.0938 43.0315 30.0623 41.8443 30.0623ZM2.15568 0.781042C1.39807 0.781042 0.781042 1.39806 0.781042 2.15568V27.9105C0.781042 28.6681 1.39807 29.2852 2.15568 29.2852H41.8443C42.6019 29.2852 43.219 28.6681 43.219 27.9105V2.15568C43.219 1.39806 42.6019 0.781042 41.8443 0.781042H2.15568Z" fill="#2E2E2E"/>
<path d="M5.03668 21.1958H3.86523V21.9768H5.03668V21.1958Z" fill="#2E2E2E"/>
<path d="M36.6964 21.9768H34.4355V21.1958H36.6964V21.9768ZM32.1746 21.9768H29.9137V21.1958H32.1746V21.9768ZM27.6489 21.9768H25.388V21.1958H27.6489V21.9768ZM23.1271 21.9768H20.8662V21.1958H23.1271V21.9768ZM18.6053 21.9768H16.3444V21.1958H18.6053V21.9768ZM14.0835 21.9768H11.8226V21.1958H14.0835V21.9768ZM9.55777 21.9768H7.29688V21.1958H9.55777V21.9768Z" fill="#2E2E2E"/>
<path d="M40.1285 21.1958H38.957V21.9768H40.1285V21.1958Z" fill="#2E2E2E"/>
<path d="M18.6646 24.7607H3.86523V25.5417H18.6646V24.7607Z" fill="#2E2E2E"/>
<path d="M11.0111 4.51807H4.90782C4.33381 4.51807 3.86523 4.98274 3.86523 5.56066V9.09844C3.86523 9.67245 4.32991 10.141 4.90782 10.141H11.0111C11.5851 10.141 12.0537 9.67635 12.0537 9.09844V5.56066C12.0498 4.98274 11.5851 4.51807 11.0111 4.51807Z" fill="#2E2E2E"/>
<path d="M39.3058 6.4107C39.1228 7.04532 38.6315 7.37784 38.0819 7.64592C37.423 7.9671 36.7168 8.13155 35.9935 8.21765C34.832 8.35633 33.6787 8.30735 32.5425 8.01298C31.994 7.87018 31.4635 7.67634 31.0031 7.33609C30.8268 7.20617 30.6706 7.04326 30.5267 6.87726C30.3711 6.69734 30.304 6.47411 30.302 6.23387C30.302 6.22872 30.3025 6.22356 30.3015 6.21892C30.1994 5.44047 30.585 4.93473 31.2222 4.56715C31.8692 4.19391 32.5739 3.9913 33.3044 3.87995C34.6201 3.67992 35.9306 3.70982 37.2132 4.08771C37.6339 4.21195 38.0427 4.39909 38.4314 4.60479C38.8552 4.82904 39.1805 5.16517 39.3058 5.65338C39.3058 5.90599 39.3058 6.15861 39.3058 6.4107Z" fill="#FFB800"/>
<path d="M39.3057 10.9811C39.1377 11.5389 38.7227 11.8683 38.236 12.1276C37.5828 12.4756 36.8771 12.6566 36.1502 12.7561C34.9139 12.9257 33.6869 12.8793 32.4775 12.5545C31.9496 12.4127 31.4402 12.2215 30.9979 11.8915C30.8262 11.7637 30.6716 11.607 30.5314 11.4446C30.3762 11.2652 30.3009 11.043 30.303 10.8027C30.3055 10.5279 30.2659 10.2475 30.3886 9.96704C30.4551 10.0609 30.5092 10.148 30.5741 10.2269C30.8809 10.5991 31.2851 10.8311 31.7212 11.0136C32.7286 11.4343 33.787 11.5714 34.8685 11.5673C35.8017 11.5637 36.7183 11.444 37.5993 11.1249C37.854 11.0327 38.102 10.9172 38.3401 10.7883C38.6943 10.5965 38.999 10.3429 39.2078 9.9624C39.2449 10.0521 39.2748 10.1232 39.3047 10.1944C39.3057 10.4563 39.3057 10.7187 39.3057 10.9811Z" fill="#FFB800"/>
<path d="M39.305 8.68031C39.1767 9.17316 38.8354 9.49022 38.4194 9.74231C37.761 10.1403 37.0346 10.3429 36.283 10.4553C34.9405 10.6558 33.6058 10.6192 32.301 10.2176C31.9097 10.0975 31.5313 9.91862 31.1689 9.72581C30.4708 9.3536 30.1883 8.75661 30.311 7.973C30.3255 7.8802 30.3523 7.78947 30.376 7.68482C31.0214 8.62154 32.0015 8.91436 33.0135 9.11439C34.5121 9.41082 36.003 9.35875 37.4651 8.8891C37.7651 8.7927 38.0549 8.65505 38.3353 8.50915C38.6926 8.32253 38.9973 8.06683 39.2081 7.68018C39.2458 7.77452 39.2751 7.84979 39.3045 7.92454C39.305 8.1756 39.305 8.42822 39.305 8.68031Z" fill="#FFB800"/>
<path d="M39.3037 15.6421C39.1759 16.1354 38.8351 16.4525 38.4191 16.7046C37.7654 17.1 37.0441 17.3021 36.2977 17.4155C34.9449 17.6207 33.603 17.5743 32.2847 17.182C31.7305 17.017 31.2135 16.7778 30.7649 16.3983C30.2427 15.957 30.2071 15.2606 30.3876 14.6636C31.0232 15.59 32.0105 15.8792 33.0266 16.0808C34.4572 16.3648 35.8852 16.3164 37.2921 15.9101C37.7979 15.7642 38.2861 15.5668 38.6969 15.2286C38.8887 15.0708 39.0475 14.8729 39.2254 14.6888C39.2444 14.7363 39.2738 14.8105 39.3037 14.8853C39.3037 15.1374 39.3037 15.3894 39.3037 15.6421Z" fill="#FFB800"/>
<path d="M39.3039 13.3722C39.16 13.8898 38.7914 14.2126 38.3476 14.4672C37.6908 14.8446 36.9726 15.0384 36.2308 15.1462C34.9131 15.338 33.6062 15.2874 32.3215 14.9132C31.8008 14.7616 31.309 14.5471 30.8759 14.211C30.2733 13.7434 30.1825 13.1645 30.3831 12.3896C30.3913 12.3907 30.4052 12.3886 30.4078 12.3927C30.7738 13.0016 31.3662 13.298 32.0003 13.5243C33.0793 13.9094 34.1975 14.0156 35.3363 13.9548C36.2282 13.9068 37.0984 13.7558 37.9228 13.3996C38.4388 13.1768 38.9074 12.8892 39.2116 12.3623C39.2466 12.4587 39.2755 12.5366 39.3039 12.6149C39.3039 12.8675 39.3039 13.1196 39.3039 13.3722Z" fill="#FFB800"/>
<path d="M29.5558 7.30945C29.5558 8.75861 29.5558 10.2042 29.5558 11.6683C29.3682 11.6874 29.18 11.7137 28.9913 11.7245C27.7881 11.7925 26.6044 11.7013 25.4615 11.2852C25.0712 11.143 24.7021 10.9605 24.3768 10.6981C23.9989 10.3934 23.8081 10.0191 23.7973 9.51232C23.7849 8.92049 24.0355 8.51064 24.4897 8.18585C25.0624 7.776 25.7161 7.56103 26.3946 7.41616C27.4189 7.19758 28.4536 7.17231 29.4929 7.29295C29.512 7.2945 29.5306 7.30274 29.5558 7.30945Z" fill="#FFB800"/>
<path d="M23.8944 13.4224C24.3645 14.1673 25.0976 14.4715 25.8689 14.6978C27.051 15.0447 28.2584 15.1009 29.4776 14.9566C29.4977 14.954 29.5178 14.954 29.5647 14.952C29.5647 15.1644 29.5477 15.3752 29.5694 15.5825C29.591 15.7897 29.6518 15.9923 29.7039 16.2387C29.1683 16.2614 28.6311 16.3063 28.0949 16.3016C27.1417 16.2929 26.2086 16.1449 25.3167 15.7907C24.9404 15.6412 24.5862 15.451 24.2815 15.1783C23.9655 14.8947 23.7742 14.556 23.8062 14.1163C23.8186 13.9461 23.8217 13.775 23.8366 13.6049C23.8423 13.5476 23.8712 13.493 23.8944 13.4224Z" fill="#FFB800"/>
<path d="M29.5568 12.6814C29.5568 13.1031 29.5568 13.5192 29.5568 13.9625C29.1769 13.9847 28.801 14.0223 28.4252 14.0259C27.3694 14.0368 26.3332 13.9074 25.3423 13.5192C24.9222 13.3547 24.5283 13.1433 24.204 12.8201C23.938 12.5551 23.7875 12.2442 23.8086 11.8597C23.8215 11.6266 23.7787 11.3869 23.8973 11.1616C24.5427 12.087 25.5289 12.3675 26.542 12.5793C27.4962 12.7789 28.4634 12.7928 29.4315 12.6819C29.4702 12.6778 29.5099 12.6814 29.5568 12.6814Z" fill="#FFB800"/>
</svg>
