<svg width="26" height="26" viewBox="0 0 26 26" fill="none" xmlns="http://www.w3.org/2000/svg">
<path d="M12.987 0C5.811 0 0 5.824 0 13C0 20.176 5.811 26 12.987 26C20.176 26 26 20.176 26 13C26 5.824 20.176 0 12.987 0ZM13 23.4C7.254 23.4 2.6 18.746 2.6 13C2.6 7.254 7.254 2.6 13 2.6C18.746 2.6 23.4 7.254 23.4 13C23.4 18.746 18.746 23.4 13 23.4ZM12.714 6.5H12.636C12.116 6.5 11.7 6.916 11.7 7.436V13.572C11.7 14.027 11.934 14.456 12.337 14.69L17.732 17.927C18.174 18.187 18.746 18.057 19.006 17.615C19.0713 17.5097 19.1147 17.3924 19.1337 17.27C19.1527 17.1476 19.1468 17.0226 19.1165 16.9026C19.0862 16.7825 19.032 16.6697 18.9572 16.571C18.8823 16.4723 18.7884 16.3897 18.681 16.328L13.65 13.338V7.436C13.65 6.916 13.234 6.5 12.714 6.5Z" fill="#C0C0C0"/>
</svg>
