<svg width="40" height="24" viewBox="0 0 40 24" fill="none" xmlns="http://www.w3.org/2000/svg">
<path fill-rule="evenodd" clip-rule="evenodd" d="M2 0H38C39.1045 0 40 0.895508 40 2V22C40 23.1045 39.1045 24 38 24H2C1.80273 24 1.61133 23.9712 1.43066 23.918C0.603516 23.6729 0 22.9067 0 22V2C0 0.895508 0.895508 0 2 0ZM3 17V21H7C7 18.7905 5.20898 17 3 17ZM3 3V7C5.20898 7 7 5.20947 7 3H3ZM33 21H37V17C34.791 17 33 18.7905 33 21ZM33 3C33 5.20947 34.791 7 37 7V3H33ZM20.4121 21.5C24.5049 21.5 27.8232 17.4707 27.8232 12.5C27.8232 7.5293 24.5049 3.5 20.4121 3.5C16.3184 3.5 13 7.5293 13 12.5C13 17.4707 16.3184 21.5 20.4121 21.5Z" fill="#78CD51"/>
<path d="M23.9999 14.1279C24 14.0958 23.9921 14.0896 23.9636 14.0897C23.4768 14.0907 22.9901 14.0901 22.5034 14.0911C22.4759 14.0912 22.4686 14.0843 22.4688 14.0543C22.4701 13.8296 22.4702 13.605 22.4687 13.3803C22.4685 13.3493 22.4771 13.3441 22.5037 13.3442C22.9905 13.3451 23.4772 13.3444 23.964 13.3457C23.9939 13.3457 23.9999 13.3373 23.9999 13.3064C23.9989 12.8081 23.9989 12.3098 23.9999 11.8115C24 11.7784 23.9918 11.7706 23.9615 11.7706C23.4759 11.7717 22.9903 11.7711 22.5046 11.7722C22.4745 11.7723 22.4687 11.7634 22.4688 11.7327C22.47 11.4853 22.4687 11.2379 22.4697 10.9906C22.4708 10.7041 22.4409 10.4216 22.3753 10.1439C22.1852 9.33854 21.7816 8.68412 21.1633 8.18703C20.6497 7.77412 20.0696 7.54947 19.4289 7.50684C19.1481 7.48818 18.8696 7.50741 18.5943 7.56813C18.0255 7.69366 17.5201 7.95972 17.0882 8.37758C16.4543 8.99081 16.0954 9.7559 16.012 10.6696C16.0085 10.708 16.0139 10.7478 16 10.785C16 10.8495 16 10.914 16 10.9786C16.4745 10.9788 16.9489 10.9787 17.4234 10.9797C17.4482 10.9798 17.4524 10.9704 17.4522 10.947C17.451 10.8356 17.462 10.7251 17.4821 10.6162C17.5654 10.1672 17.7684 9.79186 18.0978 9.50233C18.5508 9.10421 19.0701 8.97387 19.6386 9.11196C20.1538 9.23713 20.5385 9.5629 20.7985 10.056C20.9311 10.3073 21.0033 10.5799 21.0147 10.8688C21.0259 11.1542 21.0164 11.4398 21.0198 11.7253C21.0203 11.762 21.0123 11.7723 20.977 11.7722C20.4925 11.7708 20.008 11.7713 19.5235 11.7711C19.5039 11.7711 19.4885 11.7686 19.4885 11.8009C19.4895 12.3063 19.4893 12.8118 19.4888 13.3172C19.4888 13.3392 19.494 13.3452 19.5147 13.3452C20.0147 13.3444 20.5148 13.3444 21.0148 13.3442C21.0166 13.3454 21.0184 13.3467 21.0202 13.3479C21.0202 13.5944 21.0201 13.8409 21.0201 14.0874C21.0176 14.0874 21.0159 14.0885 21.0148 14.0909C20.5147 14.0907 20.0147 14.0907 19.5145 14.0898C19.4938 14.0898 19.4887 14.0959 19.4888 14.1179C19.4894 14.6234 19.4894 15.1289 19.4886 15.6343C19.4886 15.6609 19.4987 15.6624 19.518 15.6623C19.7303 15.6618 19.9426 15.6621 20.1548 15.662C20.4415 15.6618 20.7283 15.6615 21.015 15.6613C21.0159 15.6638 21.0176 15.665 21.02 15.6649C21.0198 15.6709 21.0192 15.6768 21.0192 15.6828C21.0192 16.2755 21.0194 16.8682 21.0185 17.461C21.0184 17.4925 21.0253 17.5 21.0547 17.4999C21.5147 17.4988 21.9748 17.4988 22.435 17.5C22.4655 17.5001 22.4703 17.4906 22.4703 17.4606C22.4694 16.8739 22.4699 16.2871 22.4689 15.7004C22.4689 15.6692 22.4751 15.6611 22.5049 15.6612C22.9917 15.6623 23.4785 15.6618 23.9652 15.6627C23.9921 15.6628 24.0001 15.657 24 15.6263C23.9988 15.1269 23.9988 14.6274 23.9999 14.1279Z" fill="#78CD51"/>
</svg>
