<svg width="34" height="34" viewBox="0 0 34 34" fill="none" xmlns="http://www.w3.org/2000/svg">
<path fill-rule="evenodd" clip-rule="evenodd" d="M18.7 27.2C19.6017 27.2 20.4665 27.5582 21.1042 28.1958C21.7418 28.8335 22.1 29.6983 22.1 30.6C22.1 31.5017 21.7418 32.3665 21.1042 33.0042C20.4665 33.6418 19.6017 34 18.7 34C17.7983 34 16.9335 33.6418 16.2958 33.0042C15.6582 32.3665 15.3 31.5017 15.3 30.6C15.3 29.6983 15.6582 28.8335 16.2958 28.1958C16.9335 27.5582 17.7983 27.2 18.7 27.2ZM8.0597 22.1C9.18687 22.1 10.2679 22.5478 11.0649 23.3448C11.8619 24.1418 12.3097 25.2228 12.3097 26.35C12.3097 27.4772 11.8619 28.5582 11.0649 29.3552C10.2679 30.1522 9.18687 30.6 8.0597 30.6C6.93253 30.6 5.85153 30.1522 5.0545 29.3552C4.25747 28.5582 3.8097 27.4772 3.8097 26.35C3.8097 25.2228 4.25747 24.1418 5.0545 23.3448C5.85153 22.5478 6.93253 22.1 8.0597 22.1ZM27.7423 22.95C28.644 22.95 29.5088 23.3082 30.1465 23.9458C30.7841 24.5835 31.1423 25.4483 31.1423 26.35C31.1423 27.2517 30.7841 28.1165 30.1465 28.7542C29.5088 29.3918 28.644 29.75 27.7423 29.75C26.8406 29.75 25.9758 29.3918 25.3381 28.7542C24.7005 28.1165 24.3423 27.2517 24.3423 26.35C24.3423 25.4483 24.7005 24.5835 25.3381 23.9458C25.9758 23.3082 26.8406 22.95 27.7423 22.95ZM31.45 15.8423C32.1263 15.8423 32.7749 16.111 33.2531 16.5892C33.7313 17.0674 34 17.716 34 18.3923C34 19.0686 33.7313 19.7172 33.2531 20.1954C32.7749 20.6736 32.1263 20.9423 31.45 20.9423C30.7737 20.9423 30.1251 20.6736 29.6469 20.1954C29.1687 19.7172 28.9 19.0686 28.9 18.3923C28.9 17.716 29.1687 17.0674 29.6469 16.5892C30.1251 16.111 30.7737 15.8423 31.45 15.8423ZM4.25 10.2C5.37717 10.2 6.45817 10.6478 7.2552 11.4448C8.05223 12.2418 8.5 13.3228 8.5 14.45C8.5 15.5772 8.05223 16.6582 7.2552 17.4552C6.45817 18.2522 5.37717 18.7 4.25 18.7C3.12283 18.7 2.04183 18.2522 1.2448 17.4552C0.447767 16.6582 0 15.5772 0 14.45C0 13.3228 0.447767 12.2418 1.2448 11.4448C2.04183 10.6478 3.12283 10.2 4.25 10.2ZM30.2362 8.8519C30.6871 8.8519 31.1195 9.03101 31.4383 9.34982C31.7571 9.66863 31.9362 10.101 31.9362 10.5519C31.9362 11.0028 31.7571 11.4352 31.4383 11.754C31.1195 12.0728 30.6871 12.2519 30.2362 12.2519C29.7853 12.2519 29.3529 12.0728 29.0341 11.754C28.7153 11.4352 28.5362 11.0028 28.5362 10.5519C28.5362 10.101 28.7153 9.66863 29.0341 9.34982C29.3529 9.03101 29.7853 8.8519 30.2362 8.8519ZM13.6 0C14.9526 0 16.2498 0.53732 17.2062 1.49376C18.1627 2.45019 18.7 3.7474 18.7 5.1C18.7 6.4526 18.1627 7.74981 17.2062 8.70624C16.2498 9.66268 14.9526 10.2 13.6 10.2C12.2474 10.2 10.9502 9.66268 9.99376 8.70624C9.03732 7.74981 8.5 6.4526 8.5 5.1C8.5 3.7474 9.03732 2.45019 9.99376 1.49376C10.9502 0.53732 12.2474 0 13.6 0V0ZM26.35 5.1C26.5754 5.1 26.7916 5.18955 26.951 5.34896C27.1104 5.50837 27.2 5.72457 27.2 5.95C27.2 6.17543 27.1104 6.39163 26.951 6.55104C26.7916 6.71045 26.5754 6.8 26.35 6.8C26.1246 6.8 25.9084 6.71045 25.749 6.55104C25.5896 6.39163 25.5 6.17543 25.5 5.95C25.5 5.72457 25.5896 5.50837 25.749 5.34896C25.9084 5.18955 26.1246 5.1 26.35 5.1Z" fill="#CECECE"/>
</svg>
