<svg width="16" height="20" viewBox="0 0 16 20" fill="none" xmlns="http://www.w3.org/2000/svg">
<path d="M14.4453 0C14.7175 3.59028e-05 14.9802 0.0999575 15.1836 0.280812C15.387 0.461667 15.5169 0.710876 15.5487 0.981171L15.5565 1.11118V18.8901C15.5562 19.1733 15.4478 19.4457 15.2533 19.6516C15.0589 19.8576 14.7932 19.9815 14.5105 19.9981C14.2277 20.0147 13.9493 19.9227 13.7321 19.7409C13.515 19.5591 13.3754 19.3013 13.3419 19.0201L13.3342 18.8901V13.3342H12.223C11.9508 13.3341 11.6881 13.2342 11.4847 13.0533C11.2814 12.8725 11.1514 12.6233 11.1196 12.353L11.1118 12.223V5.5559C11.1118 3.10019 12.7786 0 14.4453 0ZM7.77826 0C8.05042 3.59028e-05 8.31311 0.0999575 8.51649 0.280812C8.71988 0.461667 8.84981 0.710876 8.88166 0.981171L8.88944 1.11118V6.66708C8.88931 7.65255 8.56183 8.61006 7.95846 9.38922C7.35508 10.1684 6.50998 10.725 5.5559 10.9718V18.8901C5.55558 19.1733 5.44714 19.4457 5.25271 19.6516C5.05829 19.8576 4.79257 19.9815 4.50984 19.9981C4.22711 20.0147 3.94871 19.9227 3.73153 19.7409C3.51434 19.5591 3.37477 19.3013 3.34132 19.0201L3.33354 18.8901V10.9718C2.41732 10.7349 1.60055 10.212 1.00202 9.47893C0.403493 8.74591 0.0544147 7.84106 0.00555602 6.89598L0 6.66708V1.11118C0.000314139 0.827962 0.108761 0.555554 0.303183 0.349612C0.497605 0.143671 0.763328 0.0197401 1.04606 0.00314229C1.32879 -0.0134555 1.60719 0.0785321 1.82437 0.26031C2.04155 0.442088 2.18113 0.699937 2.21458 0.981171L2.22236 1.11118V6.66708C2.22237 7.05717 2.32506 7.44039 2.52011 7.77822C2.71517 8.11605 2.99571 8.39659 3.33354 8.59164V1.11118C3.33385 0.827962 3.4423 0.555554 3.63672 0.349612C3.83114 0.143671 4.09687 0.0197401 4.3796 0.00314229C4.66233 -0.0134555 4.94073 0.0785321 5.15791 0.26031C5.37509 0.442088 5.51467 0.699937 5.54812 0.981171L5.5559 1.11118L5.55701 8.59164C5.8671 8.4124 6.12927 8.16087 6.3212 7.85847C6.51312 7.55606 6.62912 7.21176 6.6593 6.85487L6.66708 6.66708V1.11118C6.66708 0.816476 6.78415 0.533843 6.99253 0.325457C7.20092 0.11707 7.48355 0 7.77826 0Z" fill="#FFFEFE"/>
</svg>
