<svg width="16" height="10" viewBox="0 0 16 10" fill="none" xmlns="http://www.w3.org/2000/svg">
  <path d="M8 2.08333C6.6745 2.08333 5.6 3.38906 5.6 5C5.6 6.61068 6.6745 7.91667 8 7.91667C9.325 7.91667 10.4 6.6112 10.4 5C10.4 3.38906 9.3255 2.08333 8 2.08333ZM9 6.45833C9 6.57344 8.9105 6.66667 8.8 6.66667H7.2C7.0895 6.66667 7 6.57344 7 6.45833V6.04167C7 5.92656 7.0895 5.83333 7.2 5.83333H7.6V4.38958L7.58825 4.39766C7.56641 4.41284 7.5419 4.42339 7.51614 4.42871C7.49038 4.43402 7.46387 4.43399 7.43812 4.42862C7.41237 4.42325 7.38789 4.41265 7.36608 4.39741C7.34426 4.38218 7.32555 4.36262 7.311 4.33984L7.089 3.99323C7.07442 3.97048 7.06429 3.94495 7.05919 3.91812C7.05409 3.89128 7.05412 3.86367 7.05928 3.83684C7.06443 3.81002 7.07461 3.78452 7.08923 3.7618C7.10386 3.73908 7.12264 3.71958 7.1445 3.70443L7.52775 3.43828C7.62629 3.36984 7.74207 3.33333 7.8605 3.33333H8.2C8.3105 3.33333 8.4 3.42656 8.4 3.54167V5.83333H8.8C8.9105 5.83333 9 5.92656 9 6.04167V6.45833ZM15.2 0H0.8C0.35825 0 0 0.373177 0 0.833333V9.16667C0 9.62682 0.35825 10 0.8 10H15.2C15.6418 10 16 9.62682 16 9.16667V0.833333C16 0.373177 15.6418 0 15.2 0ZM14.8 7.08333C13.9163 7.08333 13.2 7.82943 13.2 8.75H2.8C2.8 7.82943 2.08375 7.08333 1.2 7.08333V2.91667C2.08375 2.91667 2.8 2.17057 2.8 1.25H13.2C13.2 2.17057 13.9163 2.91667 14.8 2.91667V7.08333Z" fill="white"/>
</svg>
