<svg width="22" height="24" viewBox="0 0 22 24" fill="none" xmlns="http://www.w3.org/2000/svg">
<path d="M0.88 24C0.64661 24 0.422778 23.9097 0.257746 23.7489C0.0927142 23.5882 0 23.3702 0 23.1429C0 22.9155 0.0927142 22.6975 0.257746 22.5368C0.422778 22.376 0.64661 22.2857 0.88 22.2857H2.64V20.5714C2.63964 19.1159 3.06202 17.6901 3.85836 16.4585C4.6547 15.2269 5.7925 14.2399 7.14032 13.6114C7.65072 13.3731 7.92 12.9651 7.92 12.6V11.4C7.92 11.0349 7.64896 10.6269 7.14032 10.3886C5.7925 9.76013 4.6547 8.77311 3.85836 7.54152C3.06202 6.30994 2.63964 4.88405 2.64 3.42857V1.71429H0.88C0.64661 1.71429 0.422778 1.62398 0.257746 1.46323C0.0927142 1.30249 0 1.08447 0 0.857143C0 0.629814 0.0927142 0.411797 0.257746 0.251051C0.422778 0.0903058 0.64661 0 0.88 0H20.24C20.4734 0 20.6972 0.0903058 20.8623 0.251051C21.0273 0.411797 21.12 0.629814 21.12 0.857143C21.12 1.08447 21.0273 1.30249 20.8623 1.46323C20.6972 1.62398 20.4734 1.71429 20.24 1.71429H18.48V3.42857C18.4804 4.88405 18.058 6.30994 17.2616 7.54152C16.4653 8.77311 15.3275 9.76013 13.9797 10.3886C13.4693 10.6269 13.2 11.0349 13.2 11.4V12.6C13.2 12.9651 13.471 13.3731 13.9797 13.6114C15.3275 14.2399 16.4653 15.2269 17.2616 16.4585C18.058 17.6901 18.4804 19.1159 18.48 20.5714V22.2857H20.24C20.4734 22.2857 20.6972 22.376 20.8623 22.5368C21.0273 22.6975 21.12 22.9155 21.12 23.1429C21.12 23.3702 21.0273 23.5882 20.8623 23.7489C20.6972 23.9097 20.4734 24 20.24 24H0.88ZM4.4 1.71429V3.42857C4.4 4.34914 4.6112 5.22 4.99312 6H16.1269C16.507 5.22 16.72 4.34914 16.72 3.42857V1.71429H4.4ZM9.68 12.6C9.68 13.8017 8.83872 14.7189 7.90064 15.1577C6.8522 15.6465 5.96712 16.4142 5.34767 17.3722C4.72822 18.3301 4.39968 19.4393 4.4 20.5714C4.4 20.5714 5.92416 18.3446 9.68 18.0343V12.6ZM11.44 12.6V18.0343C15.1958 18.3446 16.72 20.5714 16.72 20.5714C16.7203 19.4393 16.3918 18.3301 15.7723 17.3722C15.1529 16.4142 14.2678 15.6465 13.2194 15.1577C12.2813 14.7189 11.44 13.8034 11.44 12.6017V12.6Z" fill="#F05139"/>
</svg>
