<svg width="44" height="44" viewBox="0 0 44 44" fill="none" xmlns="http://www.w3.org/2000/svg">
  <path d="M3.3005 17.8142C1.16905 19.3611 0 21.463 0 23.7185C0 25.9739 1.16905 28.0758 3.3005 29.6228C5.30206 31.0811 7.94718 31.8841 10.7399 31.8841C13.5326 31.8841 16.1778 31.0811 18.1852 29.6228C19.4428 28.7076 20.3639 27.6035 20.9071 26.3872L40.4799 27.0367C42.3574 27.1016 43.9162 25.596 43.9162 23.7126C43.9162 21.835 42.3574 20.3294 40.4799 20.3884L20.9071 21.0379C20.3639 19.8216 19.4369 18.7175 18.1852 17.8024C16.1837 16.344 13.5386 15.541 10.7399 15.541C7.94128 15.541 5.30206 16.3558 3.3005 17.8142Z" fill="#F05139"/>
  <path d="M43.9997 37.1275C43.9997 35.2499 42.441 33.7562 40.5634 33.8329L23.3701 34.5473H1.29399C0.337494 34.5473 -0.288362 35.557 0.142652 36.4131C2.46894 41.0657 7.2219 44.0001 12.4177 44.0001H20.3708C22.0299 44.0001 23.3761 42.6539 23.3761 40.9948V39.7077L40.5634 40.4221C42.441 40.4989 43.9997 39.0051 43.9997 37.1275Z" fill="#F05139"/>
  <path d="M0 1.28714C0 2.00156 0.578621 2.57427 1.28714 2.57427H13.4913V5.15445H1.28714C0.578621 5.15445 0 5.73307 0 6.44749C0 7.16191 0.578621 7.73463 1.28714 7.73463H13.4913V10.3148H1.28714C0.578621 10.3148 0 10.8875 0 11.6019C0 12.3164 0.578621 12.8891 1.28714 12.8891H17.0693C18.4864 12.8891 19.8089 12.1806 20.5883 11.0056C21.4031 9.77751 22.8024 9.069 24.2726 9.12214L40.5566 9.74799C42.4342 9.81884 43.9929 8.31915 43.9929 6.44159C43.9929 4.56402 42.4342 3.06433 40.5566 3.13518L24.2785 3.76694C22.8083 3.82598 21.409 3.11156 20.5942 1.88347C19.8089 0.708516 18.4864 0 17.0752 0H1.28714C0.578621 0 0 0.578621 0 1.28714Z" fill="#F05139"/>
</svg>
