<svg width="17" height="22" viewBox="0 0 17 22" fill="none" xmlns="http://www.w3.org/2000/svg">
<path d="M15.7857 0C16.0831 3.94931e-05 16.3702 0.109953 16.5925 0.308893C16.8147 0.507833 16.9567 0.781963 16.9915 1.07929L17 1.2223V20.7791C16.9997 21.0906 16.8811 21.3902 16.6687 21.6168C16.4562 21.8433 16.1658 21.9796 15.8569 21.9979C15.5479 22.0162 15.2437 21.915 15.0063 21.715C14.769 21.5151 14.6165 21.2314 14.5799 20.9221L14.5714 20.7791V14.6676H13.3571C13.0597 14.6675 12.7727 14.5576 12.5504 14.3587C12.3281 14.1597 12.1862 13.8856 12.1514 13.5883L12.1429 13.4453V6.11149C12.1429 3.41021 13.9643 0 15.7857 0ZM8.5 0C8.79742 3.94931e-05 9.08448 0.109953 9.30674 0.308893C9.52899 0.507833 9.67099 0.781963 9.70579 1.07929L9.71429 1.2223V7.33378C9.71414 8.4178 9.35629 9.47107 8.69692 10.3281C8.03756 11.1852 7.11404 11.7976 6.07143 12.069V20.7791C6.07109 21.0906 5.95258 21.3902 5.74011 21.6168C5.52765 21.8433 5.23727 21.9796 4.92831 21.9979C4.61934 22.0162 4.31511 21.915 4.07778 21.715C3.84044 21.5151 3.68791 21.2314 3.65136 20.9221L3.64286 20.7791V12.069C2.64162 11.8084 1.74907 11.2332 1.095 10.4268C0.440933 9.6205 0.0594638 8.62516 0.00607157 7.58558L0 7.33378V1.2223C0.000343288 0.910759 0.118853 0.611109 0.331316 0.384574C0.543778 0.158038 0.834157 0.0217141 1.14312 0.00345651C1.45209 -0.0148011 1.75632 0.0863854 1.99365 0.286341C2.23099 0.486297 2.38352 0.76993 2.42007 1.07929L2.42857 1.2223V7.33378C2.42858 7.76289 2.5408 8.18443 2.75395 8.55605C2.9671 8.92766 3.27368 9.23625 3.64286 9.4508V1.2223C3.6432 0.910759 3.76171 0.611109 3.97417 0.384574C4.18664 0.158038 4.47701 0.0217141 4.78598 0.00345651C5.09494 -0.0148011 5.39917 0.0863854 5.63651 0.286341C5.87385 0.486297 6.02637 0.76993 6.06293 1.07929L6.07143 1.2223L6.07264 9.4508C6.4115 9.25364 6.698 8.97695 6.90774 8.64431C7.11747 8.31167 7.24423 7.93293 7.27721 7.54035L7.28571 7.33378V1.2223C7.28571 0.898124 7.41365 0.587228 7.64137 0.358003C7.86909 0.128777 8.17795 0 8.5 0Z" fill="white"/>
</svg>
