<svg width="22" height="22" viewBox="0 0 22 22" fill="none" xmlns="http://www.w3.org/2000/svg">
<path d="M11 0C4.93463 0 0 4.93463 0 11C0 17.0654 4.93463 22 11 22C17.0654 22 22 17.0654 22 11C22 4.93463 17.0654 0 11 0ZM11 20.7696C5.61307 20.7696 1.2304 16.3869 1.2304 11C1.2304 5.61307 5.61307 1.2304 11 1.2304C16.3869 1.2304 20.7696 5.61307 20.7696 11C20.7696 16.3869 16.3869 20.7696 11 20.7696Z" fill="white"/>
<path d="M11.5 8.13281C11.144 8.13281 10.8555 8.41956 10.8555 8.77344V15.543C10.8555 15.8969 11.144 16.1837 11.5 16.1837C11.856 16.1837 12.1445 15.8969 12.1445 15.543V8.77344C12.1445 8.41956 11.856 8.13281 11.5 8.13281Z" fill="white"/>
<path d="M11.5 4.61621C11.144 4.61621 10.8555 4.90295 10.8555 5.25684V5.96024C10.8555 6.31412 11.144 6.60087 11.5 6.60087C11.856 6.60087 12.1445 6.31412 12.1445 5.96024V5.25684C12.1445 4.90295 11.856 4.61621 11.5 4.61621Z" fill="white"/>
</svg>
