<svg width="28" height="23" viewBox="0 0 28 23" fill="none" xmlns="http://www.w3.org/2000/svg">
<path d="M13.9629 0.843305C13.944 0.845483 13.9253 0.848547 13.9067 0.852483C13.83 0.866155 13.7568 0.894423 13.691 0.935715L0.791049 8.63171C0.715673 8.6675 0.648712 8.71844 0.594465 8.78127C0.540218 8.84409 0.499882 8.91742 0.476047 8.99653C0.452212 9.07564 0.445405 9.1588 0.456061 9.24066C0.466718 9.32252 0.494603 9.40127 0.537927 9.47188C0.581251 9.54248 0.639057 9.60336 0.707635 9.65062C0.776213 9.69788 0.854047 9.73047 0.936143 9.7463C1.01824 9.76213 1.10278 9.76085 1.18435 9.74255C1.26591 9.72424 1.34269 9.6893 1.40977 9.63998L14.0004 2.12898L26.5911 9.63998C26.6581 9.6893 26.7349 9.72424 26.8165 9.74255C26.898 9.76085 26.9826 9.76213 27.0647 9.7463C27.1468 9.73047 27.2246 9.69788 27.2932 9.65062C27.3618 9.60336 27.4196 9.54248 27.4629 9.47188C27.5062 9.40127 27.5341 9.32252 27.5448 9.24066C27.5554 9.1588 27.5486 9.07564 27.5248 8.99653C27.5009 8.91742 27.4606 8.84409 27.4064 8.78127C27.3521 8.71844 27.2851 8.6675 27.2098 8.63171L14.3098 0.935715C14.2064 0.87066 14.0854 0.83845 13.9629 0.843305ZM5.00041 8.17854L3.80041 8.90004V22.1645C3.80043 22.3215 3.86364 22.4721 3.97616 22.5831C4.08868 22.6942 4.24128 22.7565 4.40041 22.7565H23.6004C23.7595 22.7565 23.9121 22.6942 24.0247 22.5831C24.1372 22.4721 24.2004 22.3215 24.2004 22.1645V8.90004L23.0004 8.17854V21.5725H20.9004V13.2846C20.9004 13.1276 20.8372 12.977 20.7247 12.866C20.6121 12.7549 20.4595 12.6926 20.3004 12.6926H7.70041C7.54128 12.6926 7.38868 12.7549 7.27616 12.866C7.16364 12.977 7.10043 13.1276 7.10041 13.2846V21.5725H5.00041V8.17854ZM8.30041 13.8766H19.7004V15.6526H8.30041V13.8766ZM8.30041 16.8366H19.7004V18.6125H8.30041V16.8366ZM8.30041 19.7965H19.7004V21.5725H8.30041V19.7965Z" fill="white"/>
</svg>
